<svg xmlns="http://www.w3.org/2000/svg" xmlns:xlink="http://www.w3.org/1999/xlink" width="64" zoomAndPan="magnify" viewBox="0 0 48 48" height="64" preserveAspectRatio="xMidYMid meet" version="1.0"><defs><clipPath id="608d0dde7d"><path d="M 0.488281 18 L 47.507812 18 L 47.507812 42.90625 L 0.488281 42.90625 Z M 0.488281 18 " clip-rule="nonzero"/></clipPath><clipPath id="2cd3036a0b"><path d="M 17 27 L 25 27 L 25 42.90625 L 17 42.90625 Z M 17 27 " clip-rule="nonzero"/></clipPath><clipPath id="f0326a6ffd"><path d="M 17 4.703125 L 25 4.703125 L 25 23 L 17 23 Z M 17 4.703125 " clip-rule="nonzero"/></clipPath><clipPath id="6776bfaf54"><path d="M 0.488281 14 L 8 14 L 8 33 L 0.488281 33 Z M 0.488281 14 " clip-rule="nonzero"/></clipPath></defs><g clip-path="url(#608d0dde7d)"><path fill="#84c151" d="M 0.546875 42.96875 C 0.546875 42.96875 17.253906 22.152344 47.453125 19.167969 C 47.453125 19.167969 21.753906 15.136719 0.546875 35.328125 " fill-opacity="1" fill-rule="nonzero"/></g><path fill="#000000" d="M 17.871094 28.855469 L 17.871094 30.578125 C 19.894531 29.390625 22.089844 28.230469 24.453125 27.144531 L 24.453125 25.421875 C 22.089844 26.507812 19.894531 27.667969 17.871094 28.855469 " fill-opacity="1" fill-rule="nonzero"/><g clip-path="url(#2cd3036a0b)"><path fill="#000000" d="M 17.871094 30.578125 L 17.871094 42.96875 L 24.453125 38.796875 L 24.453125 27.144531 C 22.089844 28.230469 19.894531 29.390625 17.871094 30.578125 " fill-opacity="1" fill-rule="nonzero"/></g><g clip-path="url(#f0326a6ffd)"><path fill="#000000" d="M 17.871094 9.730469 L 17.871094 22.265625 C 20.128906 21.398438 22.335938 20.710938 24.453125 20.164062 L 24.453125 4.707031 L 17.871094 9.730469 " fill-opacity="1" fill-rule="nonzero"/></g><g clip-path="url(#6776bfaf54)"><path fill="#000000" d="M 0.546875 19.714844 L 0.546875 32.628906 C 2.71875 30.761719 4.921875 29.132812 7.128906 27.710938 L 7.128906 14.691406 L 0.546875 19.714844 " fill-opacity="1" fill-rule="nonzero"/></g></svg>