<svg xmlns="http://www.w3.org/2000/svg" xmlns:xlink="http://www.w3.org/1999/xlink" width="302" zoomAndPan="magnify" viewBox="0 0 226.5 67.499998" height="90" preserveAspectRatio="xMidYMid meet" version="1.0"><defs><g/><clipPath id="fda27f1422"><path d="M 12 25 L 76 25 L 76 58.59375 L 12 58.59375 Z M 12 25 " clip-rule="nonzero"/></clipPath><clipPath id="34926fceb8"><path d="M 35 37 L 45 37 L 45 58.59375 L 35 58.59375 Z M 35 37 " clip-rule="nonzero"/></clipPath><clipPath id="82113a6e93"><path d="M 35 6.480469 L 45 6.480469 L 45 31 L 35 31 Z M 35 6.480469 " clip-rule="nonzero"/></clipPath><clipPath id="9e258ba590"><path d="M 62 5 L 147 5 L 147 67.003906 L 62 67.003906 Z M 62 5 " clip-rule="nonzero"/></clipPath><clipPath id="d2b255630b"><rect x="0" width="85" y="0" height="63"/></clipPath><clipPath id="74fc2fea47"><path d="M 145 0 L 222 0 L 222 67.003906 L 145 67.003906 Z M 145 0 " clip-rule="nonzero"/></clipPath><clipPath id="3b5216583c"><rect x="0" width="77" y="0" height="68"/></clipPath></defs><g clip-path="url(#fda27f1422)"><path fill="#84c151" d="M 12.050781 58.878906 C 12.050781 58.878906 34.929688 30.375 76.28125 26.289062 C 76.28125 26.289062 41.09375 20.769531 12.050781 48.417969 " fill-opacity="1" fill-rule="nonzero"/></g><path fill="#000000" d="M 35.769531 39.550781 L 35.769531 41.910156 C 38.546875 40.285156 41.550781 38.695312 44.785156 37.210938 L 44.785156 34.847656 C 41.550781 36.335938 38.546875 37.925781 35.769531 39.550781 " fill-opacity="1" fill-rule="nonzero"/><g clip-path="url(#34926fceb8)"><path fill="#000000" d="M 35.769531 41.910156 L 35.769531 58.878906 L 44.785156 53.164062 L 44.785156 37.210938 C 41.550781 38.695312 38.546875 40.285156 35.769531 41.910156 " fill-opacity="1" fill-rule="nonzero"/></g><g clip-path="url(#82113a6e93)"><path fill="#000000" d="M 35.769531 13.367188 L 35.769531 30.53125 C 38.867188 29.34375 41.886719 28.398438 44.785156 27.652344 L 44.785156 6.484375 L 35.769531 13.367188 " fill-opacity="1" fill-rule="nonzero"/></g><path fill="#000000" d="M 12.050781 27.039062 L 12.050781 44.71875 C 15.023438 42.164062 18.042969 39.933594 21.066406 37.984375 L 21.066406 20.15625 L 12.050781 27.039062 " fill-opacity="1" fill-rule="nonzero"/><g clip-path="url(#9e258ba590)"><g transform="matrix(1, 0, 0, 1, 62, 5)"><g clip-path="url(#d2b255630b)"><g fill="#000000" fill-opacity="1"><g transform="translate(0.940319, 50.384844)"><g><path d="M 10.0625 0.796875 C 7.59375 0.796875 5.585938 0.015625 4.046875 -1.546875 C 2.515625 -3.117188 1.75 -5.375 1.75 -8.3125 L 1.75 -25.625 L 9.765625 -25.625 L 9.765625 -10.859375 C 9.765625 -8.921875 10.097656 -7.578125 10.765625 -6.828125 C 11.429688 -6.078125 12.429688 -5.703125 13.765625 -5.703125 C 15.296875 -5.703125 16.476562 -6.109375 17.3125 -6.921875 C 18.144531 -7.742188 18.5625 -9.039062 18.5625 -10.8125 L 18.5625 -25.625 L 26.578125 -25.625 L 26.578125 0 L 18.5625 0 L 18.5625 -3.703125 L 18.46875 -3.703125 C 17.800781 -2.535156 16.800781 -1.492188 15.46875 -0.578125 C 14.132812 0.335938 12.332031 0.796875 10.0625 0.796875 Z M 10.0625 0.796875 "/></g></g></g><g fill="#000000" fill-opacity="1"><g transform="translate(29.463551, 50.384844)"><g><path d="M 13.3125 0.796875 C 10.28125 0.796875 7.828125 0.378906 5.953125 -0.453125 C 4.085938 -1.285156 2.71875 -2.398438 1.84375 -3.796875 C 0.976562 -5.203125 0.5 -6.773438 0.40625 -8.515625 L 7.90625 -8.515625 C 8.132812 -5.972656 9.835938 -4.703125 13.015625 -4.703125 C 15.347656 -4.703125 16.515625 -5.4375 16.515625 -6.90625 C 16.515625 -8.007812 15.945312 -8.742188 14.8125 -9.109375 C 13.675781 -9.472656 12.09375 -9.875 10.0625 -10.3125 C 8.625 -10.644531 7.195312 -11.078125 5.78125 -11.609375 C 4.363281 -12.140625 3.195312 -12.929688 2.28125 -13.984375 C 1.363281 -15.035156 0.90625 -16.445312 0.90625 -18.21875 C 0.90625 -20.550781 1.867188 -22.5 3.796875 -24.0625 C 5.734375 -25.632812 8.503906 -26.421875 12.109375 -26.421875 C 14.847656 -26.421875 17.054688 -26.007812 18.734375 -25.1875 C 20.421875 -24.375 21.664062 -23.304688 22.46875 -21.984375 C 23.269531 -20.671875 23.703125 -19.265625 23.765625 -17.765625 L 16.265625 -17.765625 C 16.128906 -18.796875 15.757812 -19.578125 15.15625 -20.109375 C 14.5625 -20.648438 13.613281 -20.921875 12.3125 -20.921875 C 11.175781 -20.921875 10.320312 -20.734375 9.75 -20.359375 C 9.1875 -19.992188 8.90625 -19.5 8.90625 -18.875 C 8.90625 -17.96875 9.335938 -17.394531 10.203125 -17.15625 C 11.078125 -16.925781 12.5 -16.597656 14.46875 -16.171875 C 16.164062 -15.796875 17.78125 -15.304688 19.3125 -14.703125 C 20.851562 -14.109375 22.101562 -13.25 23.0625 -12.125 C 24.03125 -11.007812 24.515625 -9.488281 24.515625 -7.5625 C 24.515625 -4.851562 23.539062 -2.78125 21.59375 -1.34375 C 19.644531 0.0820312 16.882812 0.796875 13.3125 0.796875 Z M 13.3125 0.796875 "/></g></g></g><g fill="#000000" fill-opacity="1"><g transform="translate(53.933569, 50.384844)"><g><path d="M 11.609375 0.453125 C 8.671875 0.453125 6.6875 -0.304688 5.65625 -1.828125 C 4.625 -3.347656 4.109375 -5.539062 4.109375 -8.40625 L 4.109375 -19.625 L 0.546875 -19.625 L 0.546875 -25.625 L 4.109375 -25.625 L 4.109375 -32.78125 L 12.109375 -32.78125 L 12.109375 -25.625 L 16.5625 -25.625 L 16.5625 -19.625 L 12.109375 -19.625 L 12.109375 -9.015625 C 12.109375 -8.046875 12.238281 -7.359375 12.5 -6.953125 C 12.769531 -6.554688 13.226562 -6.316406 13.875 -6.234375 C 14.53125 -6.148438 15.425781 -6.109375 16.5625 -6.109375 L 16.5625 -0.09375 C 15.832031 0.03125 15.109375 0.148438 14.390625 0.265625 C 13.671875 0.390625 12.742188 0.453125 11.609375 0.453125 Z M 11.609375 0.453125 "/></g></g></g><g fill="#000000" fill-opacity="1"><g transform="translate(71.497918, 50.384844)"><g><path d="M 2 0 L 2 -35.78125 L 10.015625 -35.78125 L 10.015625 0 Z M 2 0 "/></g></g></g></g></g></g><g clip-path="url(#74fc2fea47)"><g transform="matrix(1, 0, 0, 1, 145, 0)"><g clip-path="url(#3b5216583c)"><g fill="#83c051" fill-opacity="1"><g transform="translate(0.526605, 54.60378)"><g><path d="M 2.96875 0 L 2.96875 -43.375 L 35.859375 -43.375 L 35.859375 -34.46875 L 13.890625 -34.46875 L 13.890625 -26.75 L 32.828125 -26.75 L 32.828125 -17.84375 L 13.890625 -17.84375 L 13.890625 -8.921875 L 36.21875 -8.921875 L 36.21875 0 Z M 2.96875 0 "/></g></g></g><g fill="#83c051" fill-opacity="1"><g transform="translate(38.021511, 54.60378)"><g><path d="M 14.5 0.96875 C 11.75 0.96875 9.363281 0.300781 7.34375 -1.03125 C 5.320312 -2.363281 3.753906 -4.265625 2.640625 -6.734375 C 1.523438 -9.203125 0.96875 -12.132812 0.96875 -15.53125 C 0.96875 -18.925781 1.523438 -21.859375 2.640625 -24.328125 C 3.753906 -26.796875 5.320312 -28.695312 7.34375 -30.03125 C 9.363281 -31.363281 11.75 -32.03125 14.5 -32.03125 C 16 -32.03125 17.351562 -31.804688 18.5625 -31.359375 C 19.78125 -30.921875 20.800781 -30.382812 21.625 -29.75 C 22.457031 -29.125 23.078125 -28.53125 23.484375 -27.96875 L 23.59375 -27.96875 L 23.59375 -43.375 L 33.3125 -43.375 L 33.3125 0 L 23.59375 0 L 23.59375 -3.09375 L 23.484375 -3.09375 C 23.078125 -2.570312 22.457031 -1.984375 21.625 -1.328125 C 20.800781 -0.679688 19.78125 -0.140625 18.5625 0.296875 C 17.351562 0.742188 16 0.96875 14.5 0.96875 Z M 17.046875 -6.3125 C 19.023438 -6.3125 20.582031 -7.085938 21.71875 -8.640625 C 22.851562 -10.203125 23.421875 -12.5 23.421875 -15.53125 C 23.421875 -18.5625 22.851562 -20.851562 21.71875 -22.40625 C 20.582031 -23.96875 19.023438 -24.75 17.046875 -24.75 C 15.066406 -24.75 13.507812 -23.96875 12.375 -22.40625 C 11.238281 -20.851562 10.671875 -18.5625 10.671875 -15.53125 C 10.671875 -12.5 11.238281 -10.203125 12.375 -8.640625 C 13.507812 -7.085938 15.066406 -6.3125 17.046875 -6.3125 Z M 17.046875 -6.3125 "/></g></g></g></g></g></g></svg>